<svg xmlns="http://www.w3.org/2000/svg" viewBox="0 0 64 64">
  <defs>
    <linearGradient id="red" x1="0" y1="0" x2="0" y2="1">
      <stop offset="0%" stop-color="#ff5b5b"></stop>
      <stop offset="100%" stop-color="#d62828"></stop>
    </linearGradient>
  </defs>

  <!-- Top -->
  <path d="M8 32a24 24 0 0 1 48 0H8z" fill="url(#red)"></path>

  <!-- Bottom -->
  <path d="M56 32a24 24 0 0 1-48 0h48z" fill="#ffffff"></path>

  <!-- Center line -->
  <rect x="8" y="30" width="48" height="4" fill="#222"></rect>

  <!-- Button -->
  <circle cx="32" cy="32" r="8" fill="#fff" stroke="#222" stroke-width="3"></circle>
  <circle cx="32" cy="32" r="3" fill="#4cc9f0"></circle>

  <!-- AI circuit -->
  <g stroke="#4cc9f0" stroke-width="2" stroke-linecap="round">
    <line x1="32" y1="20" x2="32" y2="14"></line>
    <circle cx="32" cy="12" r="2" fill="#4cc9f0"></circle>

    <line x1="20" y1="32" x2="14" y2="32"></line>
    <circle cx="12" cy="32" r="2" fill="#4cc9f0"></circle>

    <line x1="44" y1="32" x2="50" y2="32"></line>
    <circle cx="52" cy="32" r="2" fill="#4cc9f0"></circle>

    <line x1="32" y1="44" x2="32" y2="50"></line>
    <circle cx="32" cy="52" r="2" fill="#4cc9f0"></circle>
  </g>

  <circle cx="32" cy="32" r="24" fill="none" stroke="#222" stroke-width="2"></circle>
</svg>